<svg width="1436" height="235" viewBox="0 0 1436 235" fill="none" xmlns="http://www.w3.org/2000/svg">
<path d="M1084.77 229.866C1047.85 229.866 1029.15 206.666 1029.15 160.952V7.75852C1029.15 5.62873 1030.78 3.84122 1032.87 3.72713L1072.65 1.36914C1072.65 1.36914 1072.8 1.36914 1072.87 1.36914C1075.03 1.36914 1076.81 3.19468 1076.81 5.40054V160.229C1076.81 179.968 1082.91 189.552 1095.48 189.552C1097.63 189.552 1099.71 189.438 1101.61 189.171C1101.65 189.171 1101.72 189.171 1101.76 189.171C1102.39 189.171 1102.91 189.666 1102.99 190.312L1106.7 226.253C1106.78 226.937 1106.29 227.546 1105.66 227.66C1098.19 229.105 1091.13 229.828 1084.73 229.828L1084.77 229.866Z" fill="white"/>
<path d="M188.463 225.72C187.013 225.72 185.749 224.845 185.191 223.438C172.439 190.388 160.913 152.699 150.986 111.32L150.763 110.407H146.636L146.413 111.32C135.78 154.524 124.255 192.252 112.06 223.438C111.54 224.807 110.238 225.682 108.788 225.682H60.865C59.4522 225.682 58.1882 224.807 57.6305 223.476C45.6217 194.116 34.3566 159.24 24.2068 119.839C14.0941 80.5138 5.95198 41.6071 0.0405587 4.14549C-0.108156 3.11863 0.152095 2.05373 0.821313 1.25506C1.49053 0.456385 2.45718 0 3.49818 0H47.7409C49.4511 0 50.9383 1.33112 51.1986 3.04256C55.8459 34.6852 61.9432 67.5069 69.3046 100.671C74.6584 124.783 79.8634 145.396 84.771 161.94L86.9274 169.205L89.2696 162.016C95.2926 143.647 101.427 122.045 107.524 97.7804C115.592 65.7194 121.727 33.8865 125.742 3.11863C125.965 1.33112 127.452 0 129.237 0H168.312C170.059 0 171.546 1.33112 171.769 3.0806C176.008 34.2669 182.254 66.48 190.322 98.8453C196.344 122.996 202.33 144.256 208.167 161.94L210.547 169.167L212.666 161.864C217.611 144.902 222.89 124.061 228.355 99.8721C235.828 66.7843 241.777 34.2288 246.015 3.0806C246.238 1.33112 247.763 0 249.473 0H294.013C295.054 0 296.021 0.456385 296.69 1.25506C297.359 2.05373 297.657 3.11863 297.471 4.14549C283.045 93.9391 263.564 167.759 239.546 223.552C238.989 224.845 237.724 225.682 236.349 225.682H188.425L188.463 225.72Z" fill="white"/>
<path d="M541.291 235C513.109 235 491.806 228.383 476.377 214.843C474.741 213.398 474.592 210.888 476.042 209.252L501.175 180.538C502.625 178.865 505.153 178.789 506.752 180.386C517.459 191.073 529.802 196.474 543.521 196.474C566.647 196.474 571.48 187.726 571.48 180.386C571.48 167.493 557.538 163.424 540.696 159.735L537.015 158.936C523.779 156.084 517.124 154.676 505.004 149.124C498.721 146.614 493.739 143.457 490.096 139.692C481.879 131.667 477.009 118.584 477.009 104.626C477.009 86.5991 484.035 71.3863 497.308 60.5852C510.544 49.8601 528.947 44.1934 550.623 44.1934C576.796 44.1934 596.65 50.4686 611.187 63.2854C612.86 64.7687 612.934 67.4309 611.373 69.0663L586.314 94.5858C584.827 96.1071 582.485 96.1071 580.96 94.6238C572.595 86.6371 562.892 82.7579 551.366 82.7579C537.536 82.7579 527.869 90.1741 527.869 100.747C527.869 112.347 539.395 116.644 563.561 121.398C605.312 129.842 622.34 145.701 622.34 176.127C622.34 194.914 615.016 209.633 600.516 219.863C586.5 229.79 566.015 235 541.253 235H541.291Z" fill="white"/>
<path d="M731.382 235C703.944 235 680.522 226.176 661.858 208.796C642.6 191.187 633.23 168.596 633.23 139.692C633.23 110.787 642.748 88.0061 661.486 70.5874C679.815 53.2067 703.833 44.3833 732.907 44.3833C744.655 44.3833 767.223 46.9695 786.147 64.3882C804.587 81.3885 813.919 107.364 813.919 141.593V151.177C813.919 153.345 812.209 155.095 810.09 155.095H683.496L684.128 158.251C689.036 182.173 705.729 196.435 728.817 196.435C743.205 196.435 755.995 190.084 766.925 177.495C768.264 175.974 770.494 175.708 772.093 176.925L800.832 198.641C802.691 200.048 802.952 202.749 801.39 204.46C784.325 223.172 757.631 234.962 731.42 234.962L731.382 235ZM725.768 80.5898C702.755 80.5898 685.987 95.7646 684.054 118.318L683.794 121.17H763.022V118.546C763.022 96.5633 747.332 80.5898 725.768 80.5898Z" fill="white"/>
<path d="M925.644 235C898.206 235 874.784 226.176 856.12 208.796C836.861 191.187 827.492 168.596 827.492 139.692C827.492 110.787 837.01 88.0061 855.748 70.5874C874.077 53.2067 898.095 44.3833 927.168 44.3833C938.917 44.3833 961.485 46.9695 980.409 64.3882C998.849 81.3885 1008.18 107.364 1008.18 141.593V151.177C1008.18 153.345 1006.47 155.095 1004.35 155.095H877.758L878.39 158.251C883.297 182.173 899.991 196.435 923.079 196.435C937.467 196.435 950.256 190.084 961.187 177.495C962.525 175.974 964.756 175.708 966.355 176.925L995.094 198.641C996.953 200.048 997.213 202.749 995.652 204.46C978.587 223.172 951.892 234.962 925.681 234.962L925.644 235ZM920.067 80.5898C897.054 80.5898 880.286 95.7646 878.353 118.318L878.092 121.17H957.32V118.546C957.32 96.5633 941.631 80.5898 920.067 80.5898Z" fill="white"/>
<path d="M426.851 52.8643C414.21 42.976 398.149 38.4502 380.117 38.4502C335.205 38.4502 308.139 62.3723 301.187 69.3322C300.183 70.3591 300.146 71.9945 301.15 73.0213L323.791 96.9435C324.795 97.9703 326.431 98.0084 327.435 96.9815C340.187 84.0126 354.575 77.6993 371.343 77.6993C393.279 77.6993 409.86 93.2544 409.86 113.868C409.86 115.313 408.708 116.492 407.295 116.492C384.17 116.53 362.532 117.405 339.667 122.501C327.435 125.239 312.861 130.564 303.678 139.615C293.714 149.466 287.988 164.108 287.988 179.739C287.988 196.93 293.9 210.127 306.132 220.091C317.806 229.903 332.603 234.886 350.188 234.886C376.399 234.886 394.394 223.248 408.671 207.959L409.303 206.97L415.437 228.344C415.772 229.447 416.776 230.246 417.891 230.246H453.806C455.218 230.246 456.371 229.067 456.371 227.622V135.014C456.371 95.3461 445.143 67.0883 426.851 52.7883V52.8643ZM407.258 163.614C407.258 184.569 390.788 199.212 367.253 199.212C349.185 199.212 340.931 188.03 340.931 177.647C340.931 159.278 357.438 149.96 389.932 149.96H404.692C406.105 149.96 407.258 151.139 407.258 152.584V163.576V163.614Z" fill="white"/>
<path d="M1257.84 52.8643C1245.2 42.976 1229.14 38.4502 1211.1 38.4502C1166.19 38.4502 1139.13 62.3723 1132.17 69.3322C1131.17 70.3591 1131.13 71.9945 1132.14 73.0213L1154.78 96.9435C1155.78 97.9703 1157.42 98.0084 1158.42 96.9815C1171.17 84.0126 1185.56 77.6993 1202.33 77.6993C1224.26 77.6993 1240.85 93.2544 1240.85 113.868C1240.85 115.313 1239.69 116.492 1238.28 116.492C1215.16 116.53 1193.52 117.405 1170.65 122.501C1158.42 125.239 1143.85 130.564 1134.66 139.615C1124.7 149.466 1118.97 164.108 1118.97 179.739C1118.97 196.93 1124.89 210.127 1137.12 220.091C1148.79 229.903 1163.59 234.886 1181.17 234.886C1207.39 234.886 1225.38 223.248 1239.66 207.959L1240.29 206.97L1246.42 228.344C1246.76 229.447 1247.76 230.246 1248.88 230.246H1284.79C1286.2 230.246 1287.36 229.067 1287.36 227.622V135.014C1287.36 95.3461 1276.13 67.0883 1257.84 52.7883V52.8643ZM1238.24 163.614C1238.24 184.569 1221.77 199.212 1198.24 199.212C1180.17 199.212 1171.92 188.03 1171.92 177.647C1171.92 159.278 1188.42 149.96 1220.92 149.96H1235.68C1237.09 149.96 1238.24 151.139 1238.24 152.584V163.576V163.614Z" fill="white"/>
<path d="M1341.79 226.291H1376.07C1395.25 226.291 1410.76 210.394 1410.76 190.807C1410.76 171.221 1395.22 155.323 1376.07 155.323H1341.79C1322.64 155.323 1307.1 171.221 1307.1 190.807C1307.1 210.394 1322.64 226.291 1341.79 226.291Z" fill="white"/>
<path d="M1392.8 235C1416.67 235 1436 215.224 1436 190.807C1436 166.39 1416.67 146.614 1392.8 146.614C1368.93 146.614 1349.6 166.39 1349.6 190.807C1349.6 215.224 1368.93 235 1392.8 235Z" fill="#F46200"/>
</svg>
