<svg width="175" height="26" viewBox="0 0 175 26" fill="none" xmlns="http://www.w3.org/2000/svg">
<path d="M132.196 25.4328C127.697 25.4328 125.418 22.866 125.418 17.8083V0.859254C125.418 0.623617 125.617 0.425851 125.871 0.413227L130.719 0.152344C130.719 0.152344 130.737 0.152344 130.746 0.152344C131.009 0.152344 131.227 0.354318 131.227 0.598371V17.7283C131.227 19.9122 131.97 20.9725 133.501 20.9725C133.764 20.9725 134.017 20.9599 134.249 20.9305C134.253 20.9305 134.262 20.9305 134.267 20.9305C134.344 20.9305 134.407 20.9852 134.416 21.0567L134.869 25.0331C134.878 25.1088 134.819 25.1761 134.742 25.1888C133.832 25.3486 132.971 25.4286 132.192 25.4286L132.196 25.4328Z" fill="#2827FE"/>
<path d="M22.9672 24.9733C22.7905 24.9733 22.6365 24.8765 22.5685 24.7208C21.0144 21.0642 19.6099 16.8943 18.4002 12.3162L18.373 12.2152H17.87L17.8429 12.3162C16.547 17.0963 15.1425 21.2704 13.6564 24.7208C13.5929 24.8723 13.4344 24.9691 13.2576 24.9691H7.4174C7.24522 24.9691 7.09118 24.8723 7.02321 24.725C5.55975 21.4766 4.18691 17.6181 2.94999 13.2588C1.7176 8.90791 0.725346 4.60333 0.00494273 0.45865C-0.0131806 0.34504 0.0185352 0.227221 0.10009 0.138857C0.181645 0.0504936 0.299447 0 0.426311 0H5.81801C6.02643 0 6.20766 0.147273 6.23938 0.336624C6.80573 3.83751 7.54879 7.46884 8.4459 11.138C9.09834 13.8058 9.73266 16.0864 10.3307 17.9168L10.5935 18.7205L10.879 17.9252C11.613 15.8929 12.3605 13.5028 13.1036 10.8183C14.0868 7.27108 14.8344 3.74915 15.3237 0.34504C15.3509 0.147273 15.5321 0 15.7496 0H20.5115C20.7245 0 20.9057 0.147273 20.9329 0.340832C21.4494 3.79123 22.2106 7.35523 23.1938 10.9361C23.9278 13.608 24.6572 15.9602 25.3686 17.9168L25.6586 18.7163L25.9168 17.9084C26.5194 16.0317 27.1628 13.7258 27.8288 11.0497C28.7395 7.3889 29.4645 3.78702 29.981 0.340832C30.0082 0.147273 30.1939 0 30.4023 0H35.8303C35.9572 0 36.075 0.0504936 36.1565 0.138857C36.2381 0.227221 36.2743 0.34504 36.2517 0.45865C34.4937 10.3933 32.1195 18.5606 29.1926 24.7334C29.1246 24.8765 28.9706 24.9691 28.803 24.9691H22.9627L22.9672 24.9733Z" fill="#2827FE"/>
<path d="M65.9657 25.9992C62.5313 25.9992 59.9352 25.2671 58.0549 23.7691C57.8555 23.6092 57.8374 23.3315 58.0141 23.1505L61.0769 19.9736C61.2536 19.7885 61.5617 19.7801 61.7566 19.9568C63.0614 21.1392 64.5657 21.7367 66.2375 21.7367C69.0557 21.7367 69.6447 20.7689 69.6447 19.9568C69.6447 18.5304 67.9457 18.0801 65.8932 17.672L65.4447 17.5836C63.8317 17.268 63.0207 17.1123 61.5436 16.498C60.7779 16.2203 60.1708 15.871 59.7267 15.4545C58.7254 14.5666 58.1319 13.1191 58.1319 11.5749C58.1319 9.58037 58.9882 7.89725 60.6057 6.70223C62.2187 5.51563 64.4615 4.88867 67.1029 4.88867C70.2927 4.88867 72.7121 5.58296 74.4837 7.00099C74.6876 7.16509 74.6966 7.45964 74.5063 7.64057L71.4525 10.464C71.2713 10.6323 70.9859 10.6323 70.8001 10.4682C69.7807 9.58458 68.5981 9.15538 67.1936 9.15538C65.5081 9.15538 64.3301 9.9759 64.3301 11.1457C64.3301 12.4291 65.7346 12.9045 68.6797 13.4305C73.7678 14.3646 75.8429 16.1193 75.8429 19.4855C75.8429 21.5642 74.9504 23.1926 73.1833 24.3245C71.4752 25.4227 68.9787 25.9992 65.9612 25.9992H65.9657Z" fill="#2827FE"/>
<path d="M89.1313 25.9997C85.7876 25.9997 82.9331 25.0234 80.6587 23.1005C78.3117 21.1523 77.1699 18.6528 77.1699 15.4549C77.1699 12.257 78.3298 9.7365 80.6134 7.80933C82.8471 5.88637 85.774 4.91016 89.3171 4.91016C90.7488 4.91016 93.4991 5.19629 95.8053 7.12346C98.0526 9.00435 99.1898 11.8783 99.1898 15.6653V16.7257C99.1898 16.9655 98.9814 17.1591 98.7231 17.1591H83.2956L83.3726 17.5083C83.9707 20.155 86.0051 21.7329 88.8187 21.7329C90.5721 21.7329 92.1307 21.0302 93.4628 19.6375C93.6259 19.4691 93.8978 19.4397 94.0926 19.5743L97.5949 21.977C97.8215 22.1327 97.8532 22.4314 97.6629 22.6208C95.5832 24.691 92.3301 25.9954 89.1359 25.9954L89.1313 25.9997ZM88.4472 8.91598C85.6426 8.91598 83.5992 10.5949 83.3636 13.0901L83.3319 13.4057H92.9871V13.1154C92.9871 10.6833 91.0751 8.91598 88.4472 8.91598Z" fill="#2827FE"/>
<path d="M112.805 25.9997C109.461 25.9997 106.607 25.0234 104.332 23.1005C101.986 21.1523 100.844 18.6528 100.844 15.4549C100.844 12.257 102.004 9.7365 104.287 7.80933C106.521 5.88637 109.448 4.91016 112.991 4.91016C114.423 4.91016 117.173 5.19629 119.479 7.12346C121.726 9.00435 122.864 11.8783 122.864 15.6653V16.7257C122.864 16.9655 122.655 17.1591 122.397 17.1591H106.969L107.046 17.5083C107.645 20.155 109.679 21.7329 112.493 21.7329C114.246 21.7329 115.805 21.0302 117.137 19.6375C117.3 19.4691 117.572 19.4397 117.766 19.5743L121.269 21.977C121.495 22.1327 121.527 22.4314 121.337 22.6208C119.257 24.691 116.004 25.9954 112.81 25.9954L112.805 25.9997ZM112.126 8.91598C109.321 8.91598 107.278 10.5949 107.042 13.0901L107.01 13.4057H116.665V13.1154C116.665 10.6833 114.753 8.91598 112.126 8.91598Z" fill="#2827FE"/>
<path d="M52.0184 5.84866C50.4779 4.75463 48.5206 4.25391 46.3231 4.25391C40.8499 4.25391 37.5514 6.90061 36.7042 7.67064C36.5818 7.78425 36.5773 7.96519 36.6996 8.0788L39.4589 10.7255C39.5812 10.8391 39.7806 10.8433 39.9029 10.7297C41.457 9.29485 43.2104 8.59636 45.2538 8.59636C47.927 8.59636 49.9478 10.3173 49.9478 12.598C49.9478 12.7579 49.8073 12.8883 49.6352 12.8883C46.817 12.8925 44.18 12.9893 41.3936 13.5531C39.9029 13.8561 38.1268 14.4452 37.0077 15.4467C35.7935 16.5365 35.0957 18.1565 35.0957 19.8859C35.0957 21.7878 35.8161 23.2479 37.3068 24.3504C38.7294 25.436 40.5327 25.9872 42.6758 25.9872C45.87 25.9872 48.063 24.6996 49.8028 23.0081L49.8798 22.8987L50.6274 25.2635C50.6682 25.3855 50.7905 25.4738 50.9265 25.4738H55.3032C55.4754 25.4738 55.6159 25.3434 55.6159 25.1835V14.9375C55.6159 10.5488 54.2476 7.42238 52.0184 5.84025V5.84866ZM49.6306 18.1018C49.6306 20.4203 47.6235 22.0403 44.7555 22.0403C42.5535 22.0403 41.5476 20.8032 41.5476 19.6545C41.5476 17.6221 43.5593 16.5912 47.5193 16.5912H49.318C49.4902 16.5912 49.6306 16.7216 49.6306 16.8815V18.0976V18.1018Z" fill="#2827FE"/>
<path d="M153.288 5.84866C151.747 4.75463 149.79 4.25391 147.593 4.25391C142.119 4.25391 138.821 6.90061 137.974 7.67064C137.851 7.78425 137.847 7.96519 137.969 8.0788L140.728 10.7255C140.851 10.8391 141.05 10.8433 141.172 10.7297C142.727 9.29485 144.48 8.59636 146.523 8.59636C149.197 8.59636 151.217 10.3173 151.217 12.598C151.217 12.7579 151.077 12.8883 150.905 12.8883C148.087 12.8925 145.45 12.9893 142.663 13.5531C141.172 13.8561 139.396 14.4452 138.277 15.4467C137.063 16.5365 136.365 18.1565 136.365 19.8859C136.365 21.7878 137.086 23.2479 138.576 24.3504C139.999 25.436 141.802 25.9872 143.945 25.9872C147.14 25.9872 149.332 24.6996 151.072 23.0081L151.149 22.8987L151.897 25.2635C151.938 25.3855 152.06 25.4738 152.196 25.4738H156.573C156.745 25.4738 156.885 25.3434 156.885 25.1835V14.9375C156.885 10.5488 155.517 7.42238 153.288 5.84025V5.84866ZM150.9 18.1018C150.9 20.4203 148.893 22.0403 146.025 22.0403C143.823 22.0403 142.817 20.8032 142.817 19.6545C142.817 17.6221 144.829 16.5912 148.789 16.5912H150.588C150.76 16.5912 150.9 16.7216 150.9 16.8815V18.0976V18.1018Z" fill="#2827FE"/>
<path d="M163.518 25.0353H167.696C170.034 25.0353 171.923 23.2765 171.923 21.1095C171.923 18.9425 170.029 17.1836 167.696 17.1836H163.518C161.185 17.1836 159.291 18.9425 159.291 21.1095C159.291 23.2765 161.185 25.0353 163.518 25.0353Z" fill="#2827FE"/>
<path d="M169.734 25.9996C172.642 25.9996 174.998 23.8116 174.998 21.1102C174.998 18.4088 172.642 16.2207 169.734 16.2207C166.825 16.2207 164.469 18.4088 164.469 21.1102C164.469 23.8116 166.825 25.9996 169.734 25.9996Z" fill="#F46200"/>
</svg>
